<svg width="220" height="40" viewBox="0 0 220 40" xmlns="http://www.w3.org/2000/svg" role="img" aria-label="BugTracker AI">
  <!-- mark, scaled down and repositioned -->
  <g transform="translate(0,0) scale(0.625)">
    <rect width="64" height="64" rx="14" fill="#0A0E14"/>
    <circle cx="32" cy="32" r="24" fill="none" stroke="#1C2330" stroke-width="1.3"/>
    <circle cx="32" cy="32" r="17" fill="none" stroke="#1C2330" stroke-width="1.3"/>
    <path d="M32 8 A24 24 0 0 1 53.78 20" fill="none" stroke="#E94F37" stroke-width="2" stroke-linecap="round" stroke-opacity="0.7"/>
    <line x1="32" y1="32" x2="32" y2="8" stroke="#E94F37" stroke-width="2" stroke-linecap="round"/>
    <g transform="translate(32,32)">
      <line x1="-6" y1="-3.5" x2="-12" y2="-7" stroke="#E94F37" stroke-width="2" stroke-linecap="round"/>
      <line x1="-6" y1="3.5" x2="-12" y2="7" stroke="#E94F37" stroke-width="2" stroke-linecap="round"/>
      <line x1="6" y1="-3.5" x2="12" y2="-7" stroke="#E94F37" stroke-width="2" stroke-linecap="round"/>
      <line x1="6" y1="3.5" x2="12" y2="7" stroke="#E94F37" stroke-width="2" stroke-linecap="round"/>
      <polygon points="0,-8 7,-4 7,4 0,8 -7,4 -7,-4" fill="#E94F37"/>
      <polygon points="0,-8 7,-4 7,4 0,8 -7,4 -7,-4" fill="none" stroke="#0A0E14" stroke-width="1.3"/>
    </g>
  </g>

  <!-- wordmark -->
  <text x="50" y="18" font-family="'Inter Tight', 'Inter', system-ui, sans-serif" font-size="17" font-weight="600" letter-spacing="-0.3">
    <tspan fill="#F5F6F7">BugTracker </tspan><tspan fill="#E94F37">AI</tspan>
  </text>
  <text x="50" y="31" font-family="'JetBrains Mono', monospace" font-size="9" letter-spacing="1.5" fill="#8B93A1">DETECTION ENGINE</text>

</svg>
